<mxfile host="app.diagrams.net" modified="2022-11-06T07:27:38.176Z" agent="5.0 (Windows NT 10.0; Win64; x64) AppleWebKit/537.36 (KHTML, like Gecko) Chrome/107.0.0.0 Safari/537.36" etag="imKRsb90sqyRbGTttb7u" version="20.5.2" type="github" pages="2">
  <diagram id="9d-GFI3kk2zbG0i8XmGT" name="第 1 页">
    <mxGraphModel dx="1550" dy="779" grid="1" gridSize="10" guides="1" tooltips="1" connect="1" arrows="1" fold="1" page="1" pageScale="1" pageWidth="827" pageHeight="1169" math="0" shadow="0">
      <root>
        <mxCell id="0" />
        <mxCell id="1" parent="0" />
        <mxCell id="iBp1cymdIBhy6qXcftFD-20" value="" style="rounded=0;whiteSpace=wrap;html=1;dashed=1;fillColor=#d5e8d4;strokeColor=#82b366;" vertex="1" parent="1">
          <mxGeometry x="160" y="180" width="530" height="360" as="geometry" />
        </mxCell>
        <mxCell id="iBp1cymdIBhy6qXcftFD-21" value="" style="group;align=left;" vertex="1" connectable="0" parent="1">
          <mxGeometry x="205" y="210" width="440" height="300" as="geometry" />
        </mxCell>
        <mxCell id="iBp1cymdIBhy6qXcftFD-16" value="" style="rounded=0;whiteSpace=wrap;html=1;dashed=1;fillColor=#fff2cc;strokeColor=#d6b656;" vertex="1" parent="iBp1cymdIBhy6qXcftFD-21">
          <mxGeometry width="440" height="300" as="geometry" />
        </mxCell>
        <mxCell id="iBp1cymdIBhy6qXcftFD-17" value="" style="group" vertex="1" connectable="0" parent="iBp1cymdIBhy6qXcftFD-21">
          <mxGeometry x="15" y="20" width="400" height="258" as="geometry" />
        </mxCell>
        <mxCell id="iBp1cymdIBhy6qXcftFD-12" value="" style="rounded=0;whiteSpace=wrap;html=1;dashed=1;fillColor=#f8cecc;strokeColor=#b85450;" vertex="1" parent="iBp1cymdIBhy6qXcftFD-17">
          <mxGeometry x="10" y="8" width="390" height="250" as="geometry" />
        </mxCell>
        <mxCell id="iBp1cymdIBhy6qXcftFD-13" value="" style="group" vertex="1" connectable="0" parent="iBp1cymdIBhy6qXcftFD-17">
          <mxGeometry x="40" y="38" width="331" height="190" as="geometry" />
        </mxCell>
        <mxCell id="iBp1cymdIBhy6qXcftFD-1" value="" style="rounded=0;whiteSpace=wrap;html=1;fillColor=#dae8fc;strokeColor=#6c8ebf;" vertex="1" parent="iBp1cymdIBhy6qXcftFD-13">
          <mxGeometry width="331" height="190" as="geometry" />
        </mxCell>
        <mxCell id="iBp1cymdIBhy6qXcftFD-2" value="&lt;font face=&quot;Comic Sans MS&quot;&gt;content&lt;/font&gt; &lt;font data-font-src=&quot;https://fonts.googleapis.com/css?family=ZCOOL+KuaiLe&quot; face=&quot;ZCOOL KuaiLe&quot;&gt;区域&lt;/font&gt;" style="text;html=1;align=center;verticalAlign=middle;resizable=0;points=[];autosize=1;strokeColor=none;fillColor=none;" vertex="1" parent="iBp1cymdIBhy6qXcftFD-13">
          <mxGeometry x="120.5" y="80" width="90" height="30" as="geometry" />
        </mxCell>
        <mxCell id="iBp1cymdIBhy6qXcftFD-3" value="&lt;font face=&quot;Comic Sans MS&quot;&gt;content &lt;/font&gt;&lt;font data-font-src=&quot;https://fonts.googleapis.com/css?family=ZCOOL+KuaiLe&quot; face=&quot;ZCOOL KuaiLe&quot;&gt;边界&lt;/font&gt;" style="text;html=1;align=center;verticalAlign=middle;resizable=0;points=[];autosize=1;strokeColor=none;fillColor=none;" vertex="1" parent="iBp1cymdIBhy6qXcftFD-13">
          <mxGeometry x="-10" y="-6" width="90" height="30" as="geometry" />
        </mxCell>
        <mxCell id="iBp1cymdIBhy6qXcftFD-7" value="" style="endArrow=classic;startArrow=classic;html=1;rounded=0;exitX=0;exitY=0.75;exitDx=0;exitDy=0;entryX=1;entryY=0.75;entryDx=0;entryDy=0;" edge="1" parent="iBp1cymdIBhy6qXcftFD-13" source="iBp1cymdIBhy6qXcftFD-1" target="iBp1cymdIBhy6qXcftFD-1">
          <mxGeometry width="50" height="50" relative="1" as="geometry">
            <mxPoint x="130" y="240" as="sourcePoint" />
            <mxPoint x="180" y="190" as="targetPoint" />
          </mxGeometry>
        </mxCell>
        <mxCell id="iBp1cymdIBhy6qXcftFD-9" value="&lt;font face=&quot;Comic Sans MS&quot;&gt;content &lt;/font&gt;&lt;font data-font-src=&quot;https://fonts.googleapis.com/css?family=ZCOOL+KuaiLe&quot; face=&quot;ZCOOL KuaiLe&quot;&gt;宽度&lt;/font&gt;" style="edgeLabel;html=1;align=center;verticalAlign=middle;resizable=0;points=[];labelBackgroundColor=none;" vertex="1" connectable="0" parent="iBp1cymdIBhy6qXcftFD-7">
          <mxGeometry x="0.1082" y="1" relative="1" as="geometry">
            <mxPoint x="-23" y="11" as="offset" />
          </mxGeometry>
        </mxCell>
        <mxCell id="iBp1cymdIBhy6qXcftFD-10" value="" style="endArrow=classic;startArrow=classic;html=1;rounded=0;entryX=0.75;entryY=0;entryDx=0;entryDy=0;exitX=0.75;exitY=1;exitDx=0;exitDy=0;" edge="1" parent="iBp1cymdIBhy6qXcftFD-13" source="iBp1cymdIBhy6qXcftFD-1" target="iBp1cymdIBhy6qXcftFD-1">
          <mxGeometry width="50" height="50" relative="1" as="geometry">
            <mxPoint x="130" y="240" as="sourcePoint" />
            <mxPoint x="180" y="190" as="targetPoint" />
          </mxGeometry>
        </mxCell>
        <mxCell id="iBp1cymdIBhy6qXcftFD-11" value="&lt;span style=&quot;&quot;&gt;&lt;font face=&quot;Comic Sans MS&quot;&gt;content&lt;br&gt;&lt;/font&gt;&lt;font data-font-src=&quot;https://fonts.googleapis.com/css?family=ZCOOL+KuaiLe&quot; face=&quot;ZCOOL KuaiLe&quot;&gt;&amp;nbsp;高度&lt;/font&gt;&lt;/span&gt;" style="edgeLabel;html=1;align=left;verticalAlign=middle;resizable=0;points=[];labelBackgroundColor=none;" vertex="1" connectable="0" parent="iBp1cymdIBhy6qXcftFD-10">
          <mxGeometry x="0.5832" y="1" relative="1" as="geometry">
            <mxPoint x="3" y="32" as="offset" />
          </mxGeometry>
        </mxCell>
        <mxCell id="iBp1cymdIBhy6qXcftFD-14" value="&lt;font face=&quot;Comic Sans MS&quot;&gt;padding&lt;/font&gt;&lt;font data-font-src=&quot;https://fonts.googleapis.com/css?family=ZCOOL+KuaiLe&quot; face=&quot;ZCOOL KuaiLe&quot;&gt; 边界&lt;/font&gt;" style="text;html=1;align=center;verticalAlign=middle;resizable=0;points=[];autosize=1;strokeColor=none;fillColor=none;" vertex="1" parent="iBp1cymdIBhy6qXcftFD-17">
          <mxGeometry width="90" height="30" as="geometry" />
        </mxCell>
        <mxCell id="iBp1cymdIBhy6qXcftFD-15" value="&lt;font face=&quot;Comic Sans MS&quot;&gt;border &lt;/font&gt;&lt;font data-font-src=&quot;https://fonts.googleapis.com/css?family=ZCOOL+KuaiLe&quot; face=&quot;ZCOOL KuaiLe&quot;&gt;边界&lt;/font&gt;" style="text;html=1;align=center;verticalAlign=middle;resizable=0;points=[];autosize=1;strokeColor=none;fillColor=none;dashed=1;" vertex="1" parent="iBp1cymdIBhy6qXcftFD-17">
          <mxGeometry x="-27" y="-27" width="90" height="30" as="geometry" />
        </mxCell>
        <mxCell id="iBp1cymdIBhy6qXcftFD-18" value="&lt;font face=&quot;Comic Sans MS&quot;&gt;border &lt;/font&gt;&lt;font data-font-src=&quot;https://fonts.googleapis.com/css?family=ZCOOL+KuaiLe&quot; face=&quot;ZCOOL KuaiLe&quot;&gt;区域&lt;/font&gt;" style="text;html=1;align=center;verticalAlign=middle;resizable=0;points=[];autosize=1;strokeColor=none;fillColor=none;" vertex="1" parent="iBp1cymdIBhy6qXcftFD-17">
          <mxGeometry x="150" y="-22" width="90" height="30" as="geometry" />
        </mxCell>
        <mxCell id="iBp1cymdIBhy6qXcftFD-19" value="&lt;font face=&quot;Comic Sans MS&quot;&gt;padding&lt;/font&gt; &lt;font data-font-src=&quot;https://fonts.googleapis.com/css?family=ZCOOL+KuaiLe&quot; face=&quot;ZCOOL KuaiLe&quot;&gt;区域&lt;/font&gt;" style="text;html=1;align=center;verticalAlign=middle;resizable=0;points=[];autosize=1;strokeColor=none;fillColor=none;" vertex="1" parent="iBp1cymdIBhy6qXcftFD-17">
          <mxGeometry x="150" y="8" width="90" height="30" as="geometry" />
        </mxCell>
        <mxCell id="tstaIWyoXowcSFQgQ5QY-11" value="" style="endArrow=none;html=1;rounded=0;dashed=1;fontFamily=ZCOOL KuaiLe;fontSource=https%3A%2F%2Ffonts.googleapis.com%2Fcss%3Ffamily%3DZCOOL%2BKuaiLe;fontSize=14;" edge="1" parent="iBp1cymdIBhy6qXcftFD-17">
          <mxGeometry width="50" height="50" relative="1" as="geometry">
            <mxPoint x="40" y="380" as="sourcePoint" />
            <mxPoint x="40" y="230" as="targetPoint" />
          </mxGeometry>
        </mxCell>
        <mxCell id="tstaIWyoXowcSFQgQ5QY-14" value="" style="endArrow=none;html=1;rounded=0;dashed=1;fontFamily=ZCOOL KuaiLe;fontSource=https%3A%2F%2Ffonts.googleapis.com%2Fcss%3Ffamily%3DZCOOL%2BKuaiLe;fontSize=14;entryX=1;entryY=1;entryDx=0;entryDy=0;" edge="1" parent="iBp1cymdIBhy6qXcftFD-21" target="iBp1cymdIBhy6qXcftFD-1">
          <mxGeometry width="50" height="50" relative="1" as="geometry">
            <mxPoint x="385" y="400" as="sourcePoint" />
            <mxPoint x="385" y="360" as="targetPoint" />
          </mxGeometry>
        </mxCell>
        <mxCell id="iBp1cymdIBhy6qXcftFD-22" value="&lt;font face=&quot;Comic Sans MS&quot;&gt;margin &lt;/font&gt;&lt;font data-font-src=&quot;https://fonts.googleapis.com/css?family=ZCOOL+KuaiLe&quot; face=&quot;ZCOOL KuaiLe&quot;&gt;边界&lt;/font&gt;" style="text;html=1;align=center;verticalAlign=middle;resizable=0;points=[];autosize=1;strokeColor=none;fillColor=none;" vertex="1" parent="1">
          <mxGeometry x="149" y="172" width="90" height="30" as="geometry" />
        </mxCell>
        <mxCell id="iBp1cymdIBhy6qXcftFD-23" value="&amp;nbsp; &amp;nbsp; &lt;font face=&quot;Comic Sans MS&quot;&gt;margin&amp;nbsp; &amp;nbsp; &amp;nbsp; &amp;nbsp; &amp;nbsp; &amp;nbsp; &amp;nbsp; &amp;nbsp;&lt;/font&gt;&lt;font data-font-src=&quot;https://fonts.googleapis.com/css?family=ZCOOL+KuaiLe&quot; face=&quot;ZCOOL KuaiLe&quot;&gt;区域&lt;/font&gt;" style="text;html=1;align=center;verticalAlign=middle;resizable=0;points=[];autosize=1;strokeColor=none;fillColor=none;" vertex="1" parent="1">
          <mxGeometry x="330" y="180" width="150" height="30" as="geometry" />
        </mxCell>
        <mxCell id="iBp1cymdIBhy6qXcftFD-25" value="" style="endArrow=open;html=1;rounded=0;exitX=0;exitY=0.5;exitDx=0;exitDy=0;entryX=0;entryY=0.5;entryDx=0;entryDy=0;dashed=1;endFill=0;" edge="1" parent="1" source="iBp1cymdIBhy6qXcftFD-16" target="iBp1cymdIBhy6qXcftFD-20">
          <mxGeometry width="50" height="50" relative="1" as="geometry">
            <mxPoint x="390" y="450" as="sourcePoint" />
            <mxPoint x="440" y="400" as="targetPoint" />
          </mxGeometry>
        </mxCell>
        <mxCell id="iBp1cymdIBhy6qXcftFD-27" value="" style="endArrow=open;html=1;rounded=0;exitX=0.517;exitY=1.003;exitDx=0;exitDy=0;exitPerimeter=0;dashed=1;endFill=0;" edge="1" parent="1" source="iBp1cymdIBhy6qXcftFD-16">
          <mxGeometry width="50" height="50" relative="1" as="geometry">
            <mxPoint x="390" y="450" as="sourcePoint" />
            <mxPoint x="432" y="540" as="targetPoint" />
          </mxGeometry>
        </mxCell>
        <mxCell id="iBp1cymdIBhy6qXcftFD-28" value="" style="endArrow=open;html=1;rounded=0;exitX=1;exitY=0.5;exitDx=0;exitDy=0;entryX=1;entryY=0.5;entryDx=0;entryDy=0;dashed=1;endFill=0;" edge="1" parent="1" source="iBp1cymdIBhy6qXcftFD-16" target="iBp1cymdIBhy6qXcftFD-20">
          <mxGeometry width="50" height="50" relative="1" as="geometry">
            <mxPoint x="750" y="380" as="sourcePoint" />
            <mxPoint x="800" y="330" as="targetPoint" />
          </mxGeometry>
        </mxCell>
        <mxCell id="iBp1cymdIBhy6qXcftFD-29" value="" style="endArrow=open;html=1;rounded=0;dashed=1;endFill=0;" edge="1" parent="1">
          <mxGeometry width="50" height="50" relative="1" as="geometry">
            <mxPoint x="420" y="210" as="sourcePoint" />
            <mxPoint x="420" y="180" as="targetPoint" />
          </mxGeometry>
        </mxCell>
        <mxCell id="iBp1cymdIBhy6qXcftFD-30" value="&lt;font style=&quot;font-size: 22px;&quot;&gt;&lt;font style=&quot;font-size: 22px;&quot; face=&quot;Comic Sans MS&quot;&gt;css&lt;/font&gt;&lt;font data-font-src=&quot;https://fonts.googleapis.com/css?family=ZCOOL+KuaiLe&quot; face=&quot;ZCOOL KuaiLe&quot; style=&quot;font-size: 22px;&quot;&gt;标准盒子模型&lt;/font&gt;&lt;/font&gt;" style="text;html=1;strokeColor=none;fillColor=none;align=center;verticalAlign=middle;whiteSpace=wrap;rounded=0;dashed=1;fontColor=#FFFFFF;" vertex="1" parent="1">
          <mxGeometry x="339" y="142" width="171" height="30" as="geometry" />
        </mxCell>
        <mxCell id="tstaIWyoXowcSFQgQ5QY-8" value="" style="endArrow=open;startArrow=open;html=1;rounded=0;dashed=1;fontFamily=ZCOOL KuaiLe;fontSource=https%3A%2F%2Ffonts.googleapis.com%2Fcss%3Ffamily%3DZCOOL%2BKuaiLe;fontSize=14;endFill=0;startFill=0;" edge="1" parent="1">
          <mxGeometry width="50" height="50" relative="1" as="geometry">
            <mxPoint x="260" y="570" as="sourcePoint" />
            <mxPoint x="590" y="570" as="targetPoint" />
          </mxGeometry>
        </mxCell>
        <mxCell id="tstaIWyoXowcSFQgQ5QY-16" value="&lt;font face=&quot;Comic Sans MS&quot;&gt;box-sizing：content-box&lt;/font&gt;" style="edgeLabel;html=1;align=center;verticalAlign=middle;resizable=0;points=[];fontSize=14;fontFamily=ZCOOL KuaiLe;" vertex="1" connectable="0" parent="tstaIWyoXowcSFQgQ5QY-8">
          <mxGeometry x="0.0594" y="-3" relative="1" as="geometry">
            <mxPoint x="5" y="-13" as="offset" />
          </mxGeometry>
        </mxCell>
        <mxCell id="tstaIWyoXowcSFQgQ5QY-17" value="&lt;font color=&quot;#ffffff&quot; face=&quot;Comic Sans MS&quot;&gt;width&lt;/font&gt;" style="text;html=1;align=center;verticalAlign=middle;resizable=0;points=[];autosize=1;strokeColor=none;fillColor=none;fontSize=14;fontFamily=ZCOOL KuaiLe;" vertex="1" parent="1">
          <mxGeometry x="410" y="570" width="60" height="30" as="geometry" />
        </mxCell>
        <mxCell id="tstaIWyoXowcSFQgQ5QY-18" value="" style="endArrow=none;html=1;rounded=0;dashed=1;fontFamily=ZCOOL KuaiLe;fontSource=https%3A%2F%2Ffonts.googleapis.com%2Fcss%3Ffamily%3DZCOOL%2BKuaiLe;fontSize=14;" edge="1" parent="1">
          <mxGeometry width="50" height="50" relative="1" as="geometry">
            <mxPoint x="205" y="660" as="sourcePoint" />
            <mxPoint x="205" y="510" as="targetPoint" />
          </mxGeometry>
        </mxCell>
        <mxCell id="tstaIWyoXowcSFQgQ5QY-19" value="" style="endArrow=none;html=1;rounded=0;dashed=1;fontFamily=ZCOOL KuaiLe;fontSource=https%3A%2F%2Ffonts.googleapis.com%2Fcss%3Ffamily%3DZCOOL%2BKuaiLe;fontSize=14;" edge="1" parent="1">
          <mxGeometry width="50" height="50" relative="1" as="geometry">
            <mxPoint x="645" y="650" as="sourcePoint" />
            <mxPoint x="645" y="500" as="targetPoint" />
          </mxGeometry>
        </mxCell>
        <mxCell id="tstaIWyoXowcSFQgQ5QY-20" value="" style="endArrow=open;startArrow=open;html=1;rounded=0;dashed=1;fontFamily=ZCOOL KuaiLe;fontSource=https%3A%2F%2Ffonts.googleapis.com%2Fcss%3Ffamily%3DZCOOL%2BKuaiLe;fontSize=14;endFill=0;startFill=0;" edge="1" parent="1">
          <mxGeometry width="50" height="50" relative="1" as="geometry">
            <mxPoint x="205" y="640" as="sourcePoint" />
            <mxPoint x="640" y="640" as="targetPoint" />
          </mxGeometry>
        </mxCell>
        <mxCell id="tstaIWyoXowcSFQgQ5QY-21" value="&lt;font face=&quot;Comic Sans MS&quot;&gt;box-sizing：border-box&lt;/font&gt;" style="edgeLabel;html=1;align=center;verticalAlign=middle;resizable=0;points=[];fontSize=14;fontFamily=ZCOOL KuaiLe;" vertex="1" connectable="0" parent="tstaIWyoXowcSFQgQ5QY-20">
          <mxGeometry x="0.0594" y="-3" relative="1" as="geometry">
            <mxPoint x="5" y="-13" as="offset" />
          </mxGeometry>
        </mxCell>
        <mxCell id="tstaIWyoXowcSFQgQ5QY-22" value="&lt;font color=&quot;#ffffff&quot; face=&quot;Comic Sans MS&quot;&gt;width&lt;/font&gt;" style="text;html=1;align=center;verticalAlign=middle;resizable=0;points=[];autosize=1;strokeColor=none;fillColor=none;fontSize=14;fontFamily=ZCOOL KuaiLe;" vertex="1" parent="1">
          <mxGeometry x="410" y="640" width="60" height="30" as="geometry" />
        </mxCell>
        <mxCell id="tstaIWyoXowcSFQgQ5QY-23" value="" style="endArrow=none;html=1;rounded=0;fontFamily=Comic Sans MS;fontSize=14;" edge="1" parent="1">
          <mxGeometry width="50" height="50" relative="1" as="geometry">
            <mxPoint x="205" y="660" as="sourcePoint" />
            <mxPoint x="205" y="630" as="targetPoint" />
          </mxGeometry>
        </mxCell>
        <mxCell id="tstaIWyoXowcSFQgQ5QY-24" value="" style="endArrow=none;html=1;rounded=0;fontFamily=Comic Sans MS;fontSize=14;" edge="1" parent="1">
          <mxGeometry width="50" height="50" relative="1" as="geometry">
            <mxPoint x="645" y="650" as="sourcePoint" />
            <mxPoint x="645" y="620" as="targetPoint" />
          </mxGeometry>
        </mxCell>
        <mxCell id="tstaIWyoXowcSFQgQ5QY-25" value="" style="endArrow=none;html=1;rounded=0;fontFamily=Comic Sans MS;fontSize=14;" edge="1" parent="1">
          <mxGeometry width="50" height="50" relative="1" as="geometry">
            <mxPoint x="260" y="610" as="sourcePoint" />
            <mxPoint x="260" y="560" as="targetPoint" />
          </mxGeometry>
        </mxCell>
        <mxCell id="tstaIWyoXowcSFQgQ5QY-26" value="" style="endArrow=none;html=1;rounded=0;fontFamily=Comic Sans MS;fontSize=14;" edge="1" parent="1">
          <mxGeometry width="50" height="50" relative="1" as="geometry">
            <mxPoint x="590" y="615" as="sourcePoint" />
            <mxPoint x="590" y="560" as="targetPoint" />
          </mxGeometry>
        </mxCell>
        <mxCell id="tstaIWyoXowcSFQgQ5QY-34" value="" style="group" vertex="1" connectable="0" parent="1">
          <mxGeometry x="510" y="60" width="189" height="120" as="geometry" />
        </mxCell>
        <mxCell id="tstaIWyoXowcSFQgQ5QY-29" value="" style="group" vertex="1" connectable="0" parent="tstaIWyoXowcSFQgQ5QY-34">
          <mxGeometry x="50" y="30" width="71" height="60" as="geometry" />
        </mxCell>
        <mxCell id="tstaIWyoXowcSFQgQ5QY-27" value="" style="endArrow=classic;startArrow=classic;html=1;rounded=0;strokeColor=#66FF66;fontFamily=Comic Sans MS;fontSize=14;" edge="1" parent="tstaIWyoXowcSFQgQ5QY-29">
          <mxGeometry width="50" height="50" relative="1" as="geometry">
            <mxPoint y="30" as="sourcePoint" />
            <mxPoint x="71" y="30" as="targetPoint" />
          </mxGeometry>
        </mxCell>
        <mxCell id="tstaIWyoXowcSFQgQ5QY-28" value="" style="endArrow=classic;startArrow=classic;html=1;rounded=0;strokeColor=#66FF66;fontFamily=Comic Sans MS;fontSize=14;" edge="1" parent="tstaIWyoXowcSFQgQ5QY-29">
          <mxGeometry width="50" height="50" relative="1" as="geometry">
            <mxPoint x="35" y="60" as="sourcePoint" />
            <mxPoint x="36" as="targetPoint" />
          </mxGeometry>
        </mxCell>
        <mxCell id="tstaIWyoXowcSFQgQ5QY-30" value="left" style="text;html=1;align=center;verticalAlign=middle;resizable=0;points=[];autosize=1;strokeColor=none;fillColor=none;fontSize=14;fontFamily=Comic Sans MS;" vertex="1" parent="tstaIWyoXowcSFQgQ5QY-34">
          <mxGeometry y="45" width="50" height="30" as="geometry" />
        </mxCell>
        <mxCell id="tstaIWyoXowcSFQgQ5QY-31" value="right" style="text;html=1;align=center;verticalAlign=middle;resizable=0;points=[];autosize=1;strokeColor=none;fillColor=none;fontSize=14;fontFamily=Comic Sans MS;" vertex="1" parent="tstaIWyoXowcSFQgQ5QY-34">
          <mxGeometry x="129" y="45" width="60" height="30" as="geometry" />
        </mxCell>
        <mxCell id="tstaIWyoXowcSFQgQ5QY-32" value="top" style="text;html=1;align=center;verticalAlign=middle;resizable=0;points=[];autosize=1;strokeColor=none;fillColor=none;fontSize=14;fontFamily=Comic Sans MS;" vertex="1" parent="tstaIWyoXowcSFQgQ5QY-34">
          <mxGeometry x="65.5" width="40" height="30" as="geometry" />
        </mxCell>
        <mxCell id="tstaIWyoXowcSFQgQ5QY-33" value="bottom" style="text;html=1;align=center;verticalAlign=middle;resizable=0;points=[];autosize=1;strokeColor=none;fillColor=none;fontSize=14;fontFamily=Comic Sans MS;" vertex="1" parent="tstaIWyoXowcSFQgQ5QY-34">
          <mxGeometry x="50" y="90" width="70" height="30" as="geometry" />
        </mxCell>
      </root>
    </mxGraphModel>
  </diagram>
  <diagram id="syp5oG1yBdBtSy1dBa_j" name="第 2 页">
    <mxGraphModel dx="1550" dy="835" grid="1" gridSize="10" guides="1" tooltips="1" connect="1" arrows="1" fold="1" page="1" pageScale="1" pageWidth="827" pageHeight="1169" math="0" shadow="0">
      <root>
        <mxCell id="0" />
        <mxCell id="1" parent="0" />
      </root>
    </mxGraphModel>
  </diagram>
</mxfile>
